<svg viewBox="140.16 158.16 921.6 282" xmlns:xlink="http://www.w3.org/1999/xlink" xmlns="http://www.w3.org/2000/svg" style="max-height: 500px" width="921.6" height="282"><defs><style>.cls-1,.cls-3{fill:none;}.cls-2,.cls-4{fill:#005aee;}.cls-2,.cls-3,.cls-5{fill-rule:evenodd;}.cls-3{stroke:#005aee;stroke-miterlimit:10;stroke-width:3px;}.cls-5{fill:#fff;}.cls-6{clip-path:url(#clip-path);}.cls-7{opacity:0.8;isolation:isolate;fill:url(#radial-gradient);}</style><clipPath id="clip-path"><rect height="273.81" width="371.6" y="163.1" x="148.66" class="cls-1" id="SVGID"/></clipPath><radialGradient gradientUnits="userSpaceOnUse" gradientTransform="matrix(15.55, 0, 0, -2.74, 22892.09, -3068.19)" r="9.78" cy="-1269.7" cx="-1452.57" id="radial-gradient"><stop stop-color="#010101" offset="0"/><stop stop-color="#1e1e1e" offset="0.04"/><stop stop-color="#4e4e4e" offset="0.1"/><stop stop-color="#797979" offset="0.16"/><stop stop-color="#9b9c9c" offset="0.23"/><stop stop-color="#bcbcbb" offset="0.31"/><stop stop-color="#d4d4d4" offset="0.39"/><stop stop-color="#e8e7e7" offset="0.48"/><stop stop-color="#f5f6f6" offset="0.59"/><stop stop-color="#fff" offset="0.72"/><stop stop-color="#fff" offset="0.97"/></radialGradient></defs><title>Artboard 3</title><g id="cdr_layer2"><path d="M613,300.56q-20,0-33.73-7.73a43.14,43.14,0,0,1-19.4-21.63l26.48-9A20.43,20.43,0,0,0,596,274.5q7.08,4,17.19,4a46.43,46.43,0,0,0,10.29-1.13,20,20,0,0,0,8.28-3.82,8.85,8.85,0,0,0,3.31-7.21q0-6.07-6.25-9.47a53.61,53.61,0,0,0-16.18-5.12L597.73,249a81.83,81.83,0,0,1-18.47-5.82,36.29,36.29,0,0,1-13.7-10.43q-5.14-6.51-5.15-16.41a28.12,28.12,0,0,1,4.6-16.16A36,36,0,0,1,577.24,189a62.93,62.93,0,0,1,16.82-6.51,79.57,79.57,0,0,1,18.38-2.18A70.7,70.7,0,0,1,631.66,183,50.45,50.45,0,0,1,648.29,191a34.63,34.63,0,0,1,11.22,14.5l-26.29,9a17.25,17.25,0,0,0-8.55-9,32.44,32.44,0,0,0-14.8-3.12q-8.46,0-14.07,2.86t-5.6,8.26a9.35,9.35,0,0,0,3.86,7.47,22.68,22.68,0,0,0,10.11,4.34l16.55,3.13q7.53,1.38,15.26,3.56a68.58,68.58,0,0,1,14.24,5.73,30,30,0,0,1,10.58,9.47q4,5.91,4,14.94a30.37,30.37,0,0,1-4.5,16.42,39.18,39.18,0,0,1-12,12.07A58.58,58.58,0,0,1,631.75,298,70.64,70.64,0,0,1,613,300.56Zm64.17-2.08v-116h47.25A118.78,118.78,0,0,1,753,185.56q12.59,3.12,19.85,11.29t7.26,23.45q0,15.12-7.26,23.37T753,255.05a119.31,119.31,0,0,1-28.59,3.12h-18.2v40.31Zm29.05-63.06h19.12a56,56,0,0,0,12.22-1.22,16.84,16.84,0,0,0,8.64-4.52q3.22-3.3,3.22-9.38T746.19,211a16.67,16.67,0,0,0-8.64-4.35,60.37,60.37,0,0,0-12.22-1.13H706.21Zm148,65.14q-18.76,0-33.1-7.47a55.33,55.33,0,0,1-22.43-21q-8.08-13.54-8.09-31.62t8.09-31.61a55.33,55.33,0,0,1,22.43-21q14.34-7.47,33.1-7.48,18.93,0,33.27,7.48a55.88,55.88,0,0,1,22.52,21q8.19,13.54,8.19,31.61T910,272.07a55.88,55.88,0,0,1-22.52,21Q873.14,300.56,854.21,300.56Zm0-22.58a33,33,0,0,0,16.54-4.26,30.86,30.86,0,0,0,12-12.59q4.5-8.34,4.5-20.68t-4.5-20.67a31,31,0,0,0-12-12.6,34,34,0,0,0-32.91,0,30.92,30.92,0,0,0-12,12.6q-4.5,8.34-4.5,20.67t4.5,20.68a30.84,30.84,0,0,0,12,12.59A32.72,32.72,0,0,0,854.21,278Zm105.71,20.5v-91.9H920.39V182.43h107.92v24.15H988.79v91.9Z" class="cls-2"/><path d="M555.34,335.62h477.5a18.56,18.56,0,0,1,18.5,18.5v47a18.56,18.56,0,0,1-18.5,18.5H555.34a18.55,18.55,0,0,1-18.5-18.5v-47a18.55,18.55,0,0,1,18.5-18.5" class="cls-3"/><path d="M555.34,341.66h477.5a12.46,12.46,0,0,1,12.46,12.46v47a12.47,12.47,0,0,1-12.47,12.47H555.34a12.47,12.47,0,0,1-12.47-12.47v-47A12.46,12.46,0,0,1,555.34,341.66Z" class="cls-4"/><path d="M590.07,396.55a17.66,17.66,0,0,1-9.24-2.33,15.37,15.37,0,0,1-6-6.61,22.68,22.68,0,0,1-2.1-10.08,20.17,20.17,0,0,1,2.35-10,16.34,16.34,0,0,1,6.53-6.5,19.82,19.82,0,0,1,9.7-2.3,19.17,19.17,0,0,1,8.66,1.92,14.19,14.19,0,0,1,6,5.62l-7.44,3.06a7.29,7.29,0,0,0-2.7-2.45,9.31,9.31,0,0,0-4.67-1,8.72,8.72,0,0,0-4.7,1.31,9.09,9.09,0,0,0-3.39,3.91,14.71,14.71,0,0,0-1.26,6.47q0,5.75,2.63,8.83a8.6,8.6,0,0,0,6.88,3.08,13.15,13.15,0,0,0,3.88-.57,6.53,6.53,0,0,0,3.06-1.94,5.34,5.34,0,0,0,1.2-3.66v-1h-8.19v-7h16.83v20.65h-5.69l-1.2-4Q597.78,396.55,590.07,396.55Zm22.46-.66v-36.5h28.09V367H621.16v6.34H633v7.6H621.16v7.38h19.46v7.59Zm41.86,0V367H642.64v-7.59h32.07V367H663v28.91Zm58.79.66a19.76,19.76,0,0,1-9.78-2.3,15.36,15.36,0,0,1-6.28-6.56,21.71,21.71,0,0,1-2.19-10.05,21,21,0,0,1,2.27-10,16,16,0,0,1,6.42-6.55,19.71,19.71,0,0,1,9.78-2.33,17.37,17.37,0,0,1,9.05,2.3,15.76,15.76,0,0,1,5.93,6.17L720.73,370a7.14,7.14,0,0,0-3.28-3.2,10.36,10.36,0,0,0-4.32-1,8,8,0,0,0-4.59,1.39,9.44,9.44,0,0,0-3.28,4,15.37,15.37,0,0,0-1.2,6.37q0,5.75,2.65,8.77a8.34,8.34,0,0,0,6.53,3,11.73,11.73,0,0,0,4.29-.87,6.7,6.7,0,0,0,3.47-3.23l7.59,2.79a15.87,15.87,0,0,1-6.2,6.15A18.41,18.41,0,0,1,713.18,396.55Zm36.4,0a20.11,20.11,0,0,1-9.84-2.35,16.87,16.87,0,0,1-6.66-6.61,21.74,21.74,0,0,1,0-19.9,16.87,16.87,0,0,1,6.66-6.61,21.88,21.88,0,0,1,19.73,0,17.07,17.07,0,0,1,6.69,6.61,21.59,21.59,0,0,1,0,19.9,17.07,17.07,0,0,1-6.69,6.61A20.23,20.23,0,0,1,749.58,396.55Zm0-7.11a9.38,9.38,0,0,0,4.92-1.34,9.54,9.54,0,0,0,3.58-4,16.55,16.55,0,0,0,0-13,9.54,9.54,0,0,0-3.58-4,9.38,9.38,0,0,0-4.92-1.34,9.22,9.22,0,0,0-4.86,1.34,9.41,9.41,0,0,0-3.58,4,16.43,16.43,0,0,0,0,13,9.41,9.41,0,0,0,3.58,4A9.22,9.22,0,0,0,749.58,389.44Zm23.33,6.45v-36.5h11l14.09,26v-26h8.36v36.5h-11l-14.1-26v26Zm38.25,0v-36.5h11l14.1,26v-26h8.36v36.5h-11l-14.1-26v26Zm38.25,0v-36.5H877.5V367H858.05v6.34h11.86v7.6H858.05v7.38H877.5v7.59Zm48.42.66a19.7,19.7,0,0,1-9.78-2.3,15.39,15.39,0,0,1-6.29-6.56,21.84,21.84,0,0,1-2.18-10.05,20.89,20.89,0,0,1,2.27-10,16,16,0,0,1,6.42-6.55,19.71,19.71,0,0,1,9.78-2.33,17.33,17.33,0,0,1,9,2.3A15.69,15.69,0,0,1,913,367.2L905.37,370a7,7,0,0,0-3.28-3.2,10.28,10.28,0,0,0-4.31-1,8,8,0,0,0-4.59,1.39,9.37,9.37,0,0,0-3.28,4,15.37,15.37,0,0,0-1.21,6.37c0,3.83.89,6.75,2.65,8.77a8.36,8.36,0,0,0,6.54,3,11.64,11.64,0,0,0,4.28-.87,6.63,6.63,0,0,0,3.47-3.23l7.6,2.79a15.94,15.94,0,0,1-6.2,6.15A18.44,18.44,0,0,1,897.83,396.55Zm29.18-.66V367H915.26v-7.59h32.08V367H935.59v28.91Zm23.55,0v-36.5h28.09V367H959.2v6.34h11.85v7.6H959.2v7.38h19.45v7.59Zm31.7,0v-36.5h12a36.55,36.55,0,0,1,8.33.9,18.09,18.09,0,0,1,6.72,3,13.93,13.93,0,0,1,4.48,5.62,24.33,24.33,0,0,1,0,17.46,14,14,0,0,1-4.48,5.6,18.09,18.09,0,0,1-6.72,3,36.55,36.55,0,0,1-8.33.9Zm8.63-7.27h3.55a25.33,25.33,0,0,0,4.51-.38,10.21,10.21,0,0,0,3.88-1.5,7.5,7.5,0,0,0,2.71-3.31,14.37,14.37,0,0,0,1-5.79,14.63,14.63,0,0,0-1-5.82,7.4,7.4,0,0,0-2.71-3.33A10.59,10.59,0,0,0,999,367a23.57,23.57,0,0,0-4.51-.41h-3.55Z" class="cls-5"/><g class="cls-6"><path d="M461.94,410.09c0,14.11-67.81,26.82-151.89,26.82s-151.9-11.3-151.9-26.82c0-14.11,67.81-26.82,151.9-26.82C392.77,383.27,461.94,396,461.94,410.09Z" class="cls-7"/><path d="M272.08,280.25c17.63,2.82,195.29,0,234.62-40.93C632.83,109.47-191.74,130.64,314.12,410.1L301.91,372l-2.71-7.06,101.72-2.82c-38,0-77.31-5.65-113.92-9.88l8.13,24c8.14,21.17,8.14,18.35-8.13,5.65l-67.81-53.63c-33.91-25.41-40.69-19.76-6.78-39.52l59.67-35.29c19-11.29,17.63-12.7,8.14,7.06Z" class="cls-2"/></g></g></svg>